<?xml version="1.0" encoding="UTF-8" standalone="no"?>
<!DOCTYPE svg PUBLIC "-//W3C//DTD SVG 1.1//EN" "http://www.w3.org/Graphics/SVG/1.1/DTD/svg11.dtd">
<svg width="100%" height="100%" viewBox="0 0 2048 2048" version="1.1" xmlns="http://www.w3.org/2000/svg" xmlns:xlink="http://www.w3.org/1999/xlink" xml:space="preserve" xmlns:serif="http://www.serif.com/" style="fill-rule:evenodd;clip-rule:evenodd;stroke-linejoin:round;stroke-miterlimit:2;">
    <g transform="matrix(5.28168,0,0,5.41455,-9754.16,-2502.61)">
        <path d="M2234.55,536.076C2234.55,516.483 2226.57,497.693 2212.37,483.839C2198.16,469.984 2178.9,462.201 2158.81,462.201L1922.53,462.201C1902.44,462.201 1883.18,469.984 1868.97,483.839C1854.77,497.693 1846.79,516.483 1846.79,536.076L1846.79,766.566C1846.79,786.159 1854.77,804.95 1868.97,818.804C1883.18,832.658 1902.44,840.441 1922.53,840.441L2158.81,840.441C2178.9,840.441 2198.16,832.658 2212.37,818.804C2226.57,804.95 2234.55,786.159 2234.55,766.566L2234.55,536.076Z" style="fill:rgb(103,234,148);"/>
    </g>
    <g transform="matrix(38.6835,0,0,38.6835,-22943.7,-40851.5)">
        <path d="M629.239,1101.53L612.687,1092.52L609.928,1101.53L601.281,1101.53L614.65,1063.5L624.464,1063.5L637.886,1101.53L629.239,1101.53ZM621.812,1076.97C621.635,1076.37 621.405,1075.61 621.122,1074.69C620.839,1073.77 620.556,1072.83 620.273,1071.88C619.99,1070.92 619.76,1070.09 619.583,1069.39C619.407,1070.09 619.168,1070.97 618.867,1072.01C618.567,1073.06 618.284,1074.05 618.019,1074.98C617.753,1075.92 617.55,1076.58 617.408,1076.97L614.703,1085.78L626.485,1092.07L621.812,1076.97Z" style="fill:rgb(44,45,60);fill-rule:nonzero;"/>
    </g>
</svg>
