<?xml version="1.0" encoding="UTF-8" standalone="no"?>
<!DOCTYPE svg PUBLIC "-//W3C//DTD SVG 1.1//EN" "http://www.w3.org/Graphics/SVG/1.1/DTD/svg11.dtd">
<svg width="100%" height="100%" viewBox="0 0 2048 800" version="1.1" xmlns="http://www.w3.org/2000/svg" xmlns:xlink="http://www.w3.org/1999/xlink" xml:space="preserve" xmlns:serif="http://www.serif.com/" style="fill-rule:evenodd;clip-rule:evenodd;stroke-linejoin:round;stroke-miterlimit:2;">
    <g transform="matrix(4.15687,0,0,2.11506,-7676.86,-977.583)">
        <path d="M2234.55,566.464C2234.55,538.812 2228.96,512.292 2219.01,492.739C2209.06,473.186 2195.57,462.201 2181.5,462.201L1899.84,462.201C1885.77,462.201 1872.28,473.186 1862.33,492.739C1852.38,512.292 1846.79,538.812 1846.79,566.464L1846.79,736.178C1846.79,763.831 1852.38,790.35 1862.33,809.903C1872.28,829.457 1885.77,840.441 1899.84,840.441L2181.5,840.441C2195.57,840.441 2209.06,829.457 2219.01,809.903C2228.96,790.35 2234.55,763.831 2234.55,736.178L2234.55,566.464Z" style="fill:rgb(103,234,148);"/>
    </g>
    <g transform="matrix(1.25267,0,0,1.25267,6.59088,30.5434)">
        <g transform="matrix(4.8657,0,0,4.8657,-2794.12,-5077.46)">
            <path d="M629.239,1101.53L612.687,1092.52L609.928,1101.53L601.281,1101.53L614.65,1063.5L624.464,1063.5L637.886,1101.53L629.239,1101.53ZM621.812,1076.97C621.635,1076.37 621.405,1075.61 621.122,1074.69C620.839,1073.77 620.556,1072.83 620.273,1071.88C619.99,1070.92 619.76,1070.09 619.583,1069.39C619.407,1070.09 619.168,1070.97 618.867,1072.01C618.567,1073.06 618.284,1074.05 618.019,1074.98C617.753,1075.92 617.55,1076.58 617.408,1076.97L614.703,1085.78L626.485,1092.07L621.812,1076.97Z" style="fill:rgb(44,45,60);fill-rule:nonzero;"/>
            <path d="M673.535,1101.53L663.35,1101.53L646.851,1072.89L646.639,1072.89C646.71,1074.09 646.771,1075.29 646.825,1076.49C646.878,1077.7 646.931,1078.9 646.984,1080.1C647.037,1081.3 647.081,1082.51 647.116,1083.71L647.116,1101.53L639.955,1101.53L639.955,1063.66L650.087,1063.66L666.533,1092.04L666.692,1092.04C666.656,1090.87 666.621,1089.7 666.586,1088.54C666.55,1087.37 666.506,1086.21 666.453,1085.06C666.4,1083.91 666.356,1082.75 666.32,1081.59L666.32,1063.66L673.535,1063.66L673.535,1101.53Z" style="fill:rgb(44,45,60);fill-rule:nonzero;"/>
            <path d="M694.649,1080.26L709.662,1080.26L709.662,1099.89C707.681,1100.56 705.621,1101.09 703.482,1101.48C701.342,1101.87 698.911,1102.06 696.187,1102.06C692.438,1102.06 689.247,1101.32 686.612,1099.84C683.977,1098.35 681.979,1096.16 680.617,1093.26C679.256,1090.36 678.575,1086.79 678.575,1082.54C678.575,1078.58 679.344,1075.15 680.882,1072.25C682.421,1069.35 684.658,1067.11 687.593,1065.51C690.529,1063.92 694.118,1063.13 698.362,1063.13C700.378,1063.13 702.359,1063.34 704.304,1063.76C706.249,1064.19 708.017,1064.75 709.609,1065.46L706.956,1071.88C705.789,1071.28 704.463,1070.78 702.978,1070.39C701.492,1070.01 699.936,1069.81 698.309,1069.81C695.975,1069.81 693.95,1070.34 692.235,1071.4C690.52,1072.46 689.194,1073.96 688.256,1075.88C687.319,1077.81 686.851,1080.08 686.851,1082.7C686.851,1085.18 687.187,1087.37 687.859,1089.28C688.53,1091.19 689.591,1092.68 691.042,1093.76C692.492,1094.84 694.384,1095.38 696.718,1095.38C697.85,1095.38 698.813,1095.33 699.609,1095.22C700.405,1095.12 701.139,1094.99 701.811,1094.85L701.811,1086.94L694.649,1086.94L694.649,1080.26Z" style="fill:rgb(44,45,60);fill-rule:nonzero;"/>
            <path d="M740.696,1101.53L718.893,1101.53L718.893,1063.66L740.696,1063.66L740.696,1070.24L726.903,1070.24L726.903,1078.56L739.741,1078.56L739.741,1085.14L726.903,1085.14L726.903,1094.9L740.696,1094.9L740.696,1101.53Z" style="fill:rgb(44,45,60);fill-rule:nonzero;"/>
            <path d="M748.388,1101.53L748.388,1063.66L756.399,1063.66L756.399,1094.9L771.783,1094.9L771.783,1101.53L748.388,1101.53Z" style="fill:rgb(44,45,60);fill-rule:nonzero;"/>
            <path d="M809.502,1082.54C809.502,1085.48 809.139,1088.14 808.414,1090.53C807.689,1092.91 806.593,1094.97 805.125,1096.71C803.657,1098.44 801.783,1099.77 799.502,1100.68C797.221,1101.61 794.542,1102.06 791.465,1102.06C788.388,1102.06 785.709,1101.6 783.428,1100.66C781.147,1099.72 779.272,1098.39 777.804,1096.68C776.337,1094.96 775.24,1092.9 774.515,1090.5C773.79,1088.1 773.428,1085.42 773.428,1082.49C773.428,1078.56 774.073,1075.15 775.364,1072.25C776.655,1069.35 778.636,1067.1 781.306,1065.49C783.976,1063.88 787.38,1063.07 791.518,1063.07C795.62,1063.07 798.998,1063.88 801.65,1065.49C804.303,1067.1 806.274,1069.36 807.565,1072.28C808.856,1075.19 809.502,1078.62 809.502,1082.54ZM781.863,1082.54C781.863,1085.19 782.199,1087.48 782.871,1089.39C783.543,1091.3 784.586,1092.76 786.001,1093.79C787.415,1094.81 789.237,1095.33 791.465,1095.33C793.764,1095.33 795.611,1094.81 797.008,1093.79C798.405,1092.76 799.431,1091.3 800.085,1089.39C800.74,1087.48 801.067,1085.19 801.067,1082.54C801.067,1078.55 800.324,1075.42 798.839,1073.15C797.353,1070.89 794.913,1069.76 791.518,1069.76C789.254,1069.76 787.415,1070.27 786.001,1071.3C784.586,1072.32 783.543,1073.79 782.871,1075.7C782.199,1077.61 781.863,1079.89 781.863,1082.54Z" style="fill:rgb(44,45,60);fill-rule:nonzero;"/>
        </g>
        <g transform="matrix(1,0,0,1,-85.892,-114.156)">
            <g transform="matrix(4.8657,0,0,4.8657,-3822.81,-4753.43)">
                <path d="M846.371,1101.53L837.247,1071.83L837.034,1071.83C837.07,1072.53 837.123,1073.59 837.194,1075.01C837.264,1076.42 837.335,1077.94 837.406,1079.55C837.477,1081.15 837.512,1082.61 837.512,1083.92L837.512,1101.53L830.35,1101.53L830.35,1063.66L841.278,1063.66L850.244,1092.62L850.403,1092.62L859.899,1063.66L870.827,1063.66L870.827,1101.53L863.347,1101.53L863.347,1083.6C863.347,1082.4 863.374,1081.02 863.427,1079.46C863.48,1077.91 863.533,1076.43 863.586,1075.04C863.639,1073.64 863.683,1072.59 863.718,1071.88L863.506,1071.88L853.745,1101.53L846.371,1101.53Z" style="fill:rgb(44,45,60);fill-rule:nonzero;"/>
            </g>
            <g transform="matrix(4.8657,0,0,4.8657,-3822.81,-4753.43)">
                <path d="M900.27,1101.53L878.466,1101.53L878.466,1063.66L900.27,1063.66L900.27,1070.24L878.466,1070.24L878.466,1078.56L899.315,1078.56L899.315,1085.14L878.466,1085.14L878.466,1094.9L900.27,1094.9L900.27,1101.53Z" style="fill:rgb(44,45,60);fill-rule:nonzero;"/>
            </g>
            <g transform="matrix(4.8657,0,0,4.8657,-3822.81,-4753.43)">
                <path d="M930.296,1091.03C930.296,1093.26 929.748,1095.2 928.651,1096.87C927.555,1098.53 925.972,1099.81 923.903,1100.71C921.834,1101.61 919.315,1102.06 916.344,1102.06C915.035,1102.06 913.753,1101.98 912.498,1101.8C911.242,1101.62 910.04,1101.37 908.89,1101.03C907.741,1100.69 906.653,1100.28 905.628,1099.78L905.628,1092.3C907.431,1093.08 909.297,1093.8 911.225,1094.45C913.152,1095.11 915.071,1095.43 916.98,1095.43C918.289,1095.43 919.341,1095.26 920.137,1094.9C920.933,1094.55 921.516,1094.07 921.888,1093.47C922.259,1092.87 922.445,1092.18 922.445,1091.4C922.445,1090.45 922.117,1089.63 921.463,1088.96C920.809,1088.29 919.934,1087.66 918.837,1087.08C917.741,1086.49 916.485,1085.87 915.071,1085.19C914.186,1084.77 913.232,1084.27 912.206,1083.68C911.18,1083.1 910.199,1082.37 909.262,1081.51C908.324,1080.64 907.555,1079.59 906.954,1078.35C906.353,1077.11 906.052,1075.63 906.052,1073.89C906.052,1071.63 906.574,1069.69 907.617,1068.09C908.66,1066.48 910.146,1065.25 912.073,1064.4C914.001,1063.55 916.273,1063.13 918.89,1063.13C920.871,1063.13 922.754,1063.36 924.54,1063.82C925.479,1064.06 926.44,1064.35 927.424,1064.7C928.31,1065.02 929.215,1065.38 930.137,1065.78L927.537,1072.04C925.804,1071.33 924.248,1070.78 922.869,1070.39C921.49,1070.01 920.075,1069.81 918.625,1069.81C917.635,1069.81 916.786,1069.97 916.079,1070.29C915.371,1070.61 914.832,1071.05 914.461,1071.61C914.089,1072.18 913.904,1072.85 913.904,1073.63C913.904,1074.51 914.169,1075.27 914.699,1075.88C915.23,1076.5 916.026,1077.1 917.087,1077.66C918.148,1078.23 919.474,1078.9 921.065,1079.68C923.01,1080.6 924.664,1081.55 926.025,1082.54C927.387,1083.53 928.439,1084.7 929.182,1086.04C929.925,1087.39 930.296,1089.05 930.296,1091.03Z" style="fill:rgb(44,45,60);fill-rule:nonzero;"/>
            </g>
            <g transform="matrix(4.8657,0,0,4.8657,-3822.81,-4753.43)">
                <path d="M968.12,1101.53L960.11,1101.53L960.11,1085.19L945.097,1085.19L945.097,1101.53L937.086,1101.53L937.086,1063.66L945.097,1063.66L945.097,1078.51L960.11,1078.51L960.11,1063.66L968.12,1063.66L968.12,1101.53Z" style="fill:rgb(44,45,60);fill-rule:nonzero;"/>
            </g>
        </g>
    </g>
</svg>
